# xmcd CD database file
#
# Track frame offsets:
#	150
#	17230
#	29990
#	46252
#	57865
#	69552
#	87377
#	100062
#	115125
#	129670
#	157150
#	170685
#	192622
#	206852
#
# Disc length: 2973 seconds
#
# Revision: 0
# Processed by: cddbd v1.5.2PL0 Copyright (c) Steve Scherf et al.
# Submitted via: CDex 1.51
#
DISCID=d50b9b0e
DTITLE=Edwin Hubbard - Moonpie
DYEAR=2001
DGENRE=Jazz
TTITLE0=Opener
TTITLE1=Memphis Blues
TTITLE2=Moonpie
TTITLE3=Duelin' Banjos
TTITLE4=Cielito Lindo
TTITLE5=Little Liza Jane
TTITLE6=Bluebird
TTITLE7=Gus-Fuss
TTITLE8=I'll Fly Away
TTITLE9=Ghost Riders In The Sky
TTITLE10=Golden Slippers
TTITLE11=Big R
TTITLE12=Southern Lullaby
TTITLE13=Brighter Day
EXTD=YEAR: 2001
EXTT0=
EXTT1=
EXTT2=
EXTT3=
EXTT4=
EXTT5=
EXTT6=
EXTT7=
EXTT8=
EXTT9=
EXTT10=
EXTT11=
EXTT12=
EXTT13=
PLAYORDER=
